{"title":"Mrs.Miracle 2009 DvdRip H264","uid":6831351,"size":665899452,"categoryP":"video","categoryS":"movies","magnet":"?xt=urn:btih:909c359b1b296241152611b962039bcb7ebf3c1e&amp;dn=Mrs.Miracle+2009+DvdRip+H264&amp;tr=udp%3A%2F%2Ftracker.openbittorrent.com%3A80&amp;tr=udp%3A%2F%2Fopen.demonii.com%3A1337&amp;tr=udp%3A%2F%2Ftracker.coppersurfer.tk%3A6969&amp;tr=udp%3A%2F%2Fexodus.desync.com%3A6969","seeders":0,"leechers":1,"uploader":"6thstreet","files":-1,"time":1321884280,"description":" &lt;a href=&quot;http://www.imdb.com/title/tt1431115/&quot; rel=&quot;nofollow&quot; target=&quot;_NEW&quot;&gt;http://www.imdb.com/title/tt1431115/&lt;/a&gt;\n\nMrs. Miracle (TV 2009)\n90 min  -  Comedy | Fantasy | Romance\n\nOverwhelmed widower Seth Webster is searching for a housekeeper to help him with his unruly six year old twin sons. &quot;Mrs. Miracle&quot; mysteriously appears and quickly becomes an irreplaceable nanny, chef, friend... and matchmaker.\n\n\nDirector: Michael Scott\nWriters: David Golden (teleplay), Debbie Macomber (book)\nStars: James Van Der Beek, Erin Karpluk and Doris Roberts\nRelease Date: 5 December 2009 (USA) \n\n\nMrs.Miracle 2009 DvdRip H264.AVI\n\nFormat                                   : AVI\nFormat/Info                              : Audio Video Interleave\nFile size                                : 632 MiB\nDuration                                 : 1h 32mn\nOverall bit rate                         : 960 Kbps\n\nVideo\nID                                       : 0\nFormat                                   : AVC\nFormat/Info                              : Advanced Video Codec\nFormat profile                           : &lt;a class=&quot;__cf_email__&quot; href=&quot;/cdn-cgi/l/email-protection&quot; data-cfemail=&quot;bff2ded6d1fff38b918f&quot;&gt;[email&amp;#160;protected]&lt;/a&gt;&lt;script cf-hash='f9e31' type=&quot;text/javascript&quot;&gt;\n/* &lt;![CDATA[ */!function(){try{var t=&quot;currentScript&quot;in document?document.currentScript:function(){for(var t=document.getElementsByTagName(&quot;script&quot;),e=t.length;e--;)if(t[e].getAttribute(&quot;cf-hash&quot;))return t[e]}();if(t&amp;&amp;t.previousSibling){var e,r,n,i,c=t.previousSibling,a=c.getAttribute(&quot;data-cfemail&quot;);if(a){for(e=&quot;&quot;,r=parseInt(a.substr(0,2),16),n=2;a.length-n;n+=2)i=parseInt(a.substr(n,2),16)^r,e+=String.fromCharCode(i);e=document.createTextNode(e),c.parentNode.replaceChild(e,c)}}}catch(u){}}();/* ]]&gt; */&lt;/script&gt;\nFormat settings, CABAC                   : Yes\nFormat settings, ReFrames                : 2 frames\nCodec ID                                 : H264\nDuration                                 : 1h 32mn\nBit rate                                 : 45.4 Kbps\nWidth                                    : 720 pixels\nHeight                                   : 480 pixels\nDisplay aspect ratio                     : 16:9\nFrame rate                               : 29.970 fps\nStandard                                 : NTSC\nColor space                              : YUV\nChroma subsampling                       : 4:2:0\nBit depth                                : 8 bits\nScan type                                : Progressive\nBits/(Pixel*Frame)                       : 0.004\nStream size                              : 29.9 MiB (5%)\n\nAudio\nID                                       : 1\nFormat                                   : MPEG Audio\nCodec ID                                 : 55\nCodec ID/Hint                            : MP3\nDuration                                 : 1h 32mn\nBit rate                                 : 192 Kbps\nChannel(s)                               : 2 channels\nSampling rate                            : 48.0 KHz\nCompression mode                         : Lossy\nStream size                              : 127 MiB (20%)\nAlignment                                : Aligned on interleaves\n\n\n\n\n\n\n\n\n\n\n\n\n\n\n\n","torrent":{"xt":"urn:btih:909c359b1b296241152611b962039bcb7ebf3c1e","amp;dn":"Mrs.Miracle+2009+DvdRip+H264","amp;tr":["udp%3A%2F%2Ftracker.openbittorrent.com%3A80","udp%3A%2F%2Fopen.demonii.com%3A1337","udp%3A%2F%2Ftracker.coppersurfer.tk%3A6969","udp%3A%2F%2Fexodus.desync.com%3A6969"],"infoHash":"909c359b1b296241152611b962039bcb7ebf3c1e","infoHashBuffer":{"type":"Buffer","data":[144,156,53,155,27,41,98,65,21,38,17,185,98,3,155,203,126,191,60,30]},"announce":[],"urlList":[]}}